<?xml version="1.0" encoding="UTF-8" standalone="no"?><svg xmlns="http://www.w3.org/2000/svg" xmlns:xlink="http://www.w3.org/1999/xlink" clip-rule="evenodd" stroke-miterlimit="4.00" viewBox="0 0 1024 768"><desc>SVG generated by Keynote</desc><defs></defs><g transform="matrix(1.00, 0.00, -0.00, -1.00, 0.0, 768.0)"><g><clipPath id="clip-40"><path d="M 0.0 768.0 L 1024.0 768.0 L 1024.0 0.0 L 0.0 0.0 Z M 0.0 768.0 "></path></clipPath><g clip-path="url(#clip-40)"><image xlink:href="50EB91801EF71E6843EBDAF4BDD31BA8.jpeg" width="1024.00" height="768.00" transform="matrix(1.00, 0.00, -0.00, -1.00, 0.0, 768.0)"></image></g></g><image xlink:href="BCC17EA8756765727C0401BD0B839778.png" width="758.00" height="55.00" transform="matrix(1.00, 0.00, -0.00, -1.00, 131.0, 582.0)"></image><text xml:space="preserve" font-family="Copperplate" font-size="78.0" fill="#FFFBF2" transform="matrix(1.00, 0.00, -0.00, -1.00, 132.0, 527.0)">C</text><text xml:space="preserve" font-family="Copperplate" font-size="78.0" fill="#FFFBF2" transform="matrix(1.00, 0.00, -0.00, -1.00, 188.3, 527.0)">o</text><text xml:space="preserve" font-family="Copperplate" font-size="78.0" fill="#FFFBF2" transform="matrix(1.00, 0.00, -0.00, -1.00, 236.0, 527.0)">n</text><text xml:space="preserve" font-family="Copperplate" font-size="78.0" fill="#FFFBF2" transform="matrix(1.00, 0.00, -0.00, -1.00, 288.0, 527.0)">c</text><text xml:space="preserve" font-family="Copperplate" font-size="78.0" fill="#FFFBF2" transform="matrix(1.00, 0.00, -0.00, -1.00, 331.4, 527.0)">e</text><text xml:space="preserve" font-family="Copperplate" font-size="78.0" fill="#FFFBF2" transform="matrix(1.00, 0.00, -0.00, -1.00, 374.7, 527.0)">p</text><text xml:space="preserve" font-family="Copperplate" font-size="78.0" fill="#FFFBF2" transform="matrix(1.00, 0.00, -0.00, -1.00, 418.1, 527.0)">c</text><text xml:space="preserve" font-family="Copperplate" font-size="78.0" fill="#FFFBF2" transform="matrix(1.00, 0.00, -0.00, -1.00, 461.5, 527.0)">i</text><text xml:space="preserve" font-family="Copperplate" font-size="78.0" fill="#FFFBF2" transform="matrix(1.00, 0.00, -0.00, -1.00, 487.4, 527.0)">รณ</text><text xml:space="preserve" font-family="Copperplate" font-size="78.0" fill="#FFFBF2" transform="matrix(1.00, 0.00, -0.00, -1.00, 535.1, 527.0)">n</text><text xml:space="preserve" font-family="Copperplate" font-size="78.0" fill="#FFFBF2" transform="matrix(1.00, 0.00, -0.00, -1.00, 587.1, 527.0)"> </text><text xml:space="preserve" font-family="Copperplate" font-size="78.0" fill="#FFFBF2" transform="matrix(1.00, 0.00, -0.00, -1.00, 610.9, 527.0)">A</text><text xml:space="preserve" font-family="Copperplate" font-size="78.0" fill="#FFFBF2" transform="matrix(1.00, 0.00, -0.00, -1.00, 662.9, 527.0)">r</text><text xml:space="preserve" font-family="Copperplate" font-size="78.0" fill="#FFFBF2" transform="matrix(1.00, 0.00, -0.00, -1.00, 710.6, 527.0)">e</text><text xml:space="preserve" font-family="Copperplate" font-size="78.0" fill="#FFFBF2" transform="matrix(1.00, 0.00, -0.00, -1.00, 754.0, 527.0)">n</text><text xml:space="preserve" font-family="Copperplate" font-size="78.0" fill="#FFFBF2" transform="matrix(1.00, 0.00, -0.00, -1.00, 806.0, 527.0)">a</text><text xml:space="preserve" font-family="Copperplate" font-size="78.0" fill="#FFFBF2" transform="matrix(1.00, 0.00, -0.00, -1.00, 849.4, 527.0)">l</text><image xlink:href="A5DA7243397F66BF5623BE4136C67BF9.png" width="565.00" height="29.00" transform="matrix(1.00, 0.00, -0.00, -1.00, 230.0, 475.0)"></image><text xml:space="preserve" font-family="Copperplate" font-size="42.0" fill="#FFFBF2" transform="matrix(1.00, 0.00, -0.00, -1.00, 230.0, 448.0)">P</text><text xml:space="preserve" font-family="Copperplate" font-size="42.0" fill="#FFFBF2" transform="matrix(1.00, 0.00, -0.00, -1.00, 258.0, 448.0)">r</text><text xml:space="preserve" font-family="Copperplate" font-size="42.0" fill="#FFFBF2" transform="matrix(1.00, 0.00, -0.00, -1.00, 283.7, 448.0)">e</text><text xml:space="preserve" font-family="Copperplate" font-size="42.0" fill="#FFFBF2" transform="matrix(1.00, 0.00, -0.00, -1.00, 307.0, 448.0)">c</text><text xml:space="preserve" font-family="Copperplate" font-size="42.0" fill="#FFFBF2" transform="matrix(1.00, 0.00, -0.00, -1.00, 330.4, 448.0)">u</text><text xml:space="preserve" font-family="Copperplate" font-size="42.0" fill="#FFFBF2" transform="matrix(1.00, 0.00, -0.00, -1.00, 358.4, 448.0)">r</text><text xml:space="preserve" font-family="Copperplate" font-size="42.0" fill="#FFFBF2" transform="matrix(1.00, 0.00, -0.00, -1.00, 384.1, 448.0)">s</text><text xml:space="preserve" font-family="Copperplate" font-size="42.0" fill="#FFFBF2" transform="matrix(1.00, 0.00, -0.00, -1.00, 407.4, 448.0)">o</text><text xml:space="preserve" font-family="Copperplate" font-size="42.0" fill="#FFFBF2" transform="matrix(1.00, 0.00, -0.00, -1.00, 433.1, 448.0)">r</text><text xml:space="preserve" font-family="Copperplate" font-size="42.0" fill="#FFFBF2" transform="matrix(1.00, 0.00, -0.00, -1.00, 458.7, 448.0)">a</text><text xml:space="preserve" font-family="Copperplate" font-size="42.0" fill="#FFFBF2" transform="matrix(1.00, 0.00, -0.00, -1.00, 482.1, 448.0)"> </text><text xml:space="preserve" font-family="Copperplate" font-size="42.0" fill="#FFFBF2" transform="matrix(1.00, 0.00, -0.00, -1.00, 494.9, 448.0)">d</text><text xml:space="preserve" font-family="Copperplate" font-size="42.0" fill="#FFFBF2" transform="matrix(1.00, 0.00, -0.00, -1.00, 520.6, 448.0)">e</text><text xml:space="preserve" font-family="Copperplate" font-size="42.0" fill="#FFFBF2" transform="matrix(1.00, 0.00, -0.00, -1.00, 543.9, 448.0)">l</text><text xml:space="preserve" font-family="Copperplate" font-size="42.0" fill="#FFFBF2" transform="matrix(1.00, 0.00, -0.00, -1.00, 567.3, 448.0)"> </text><text xml:space="preserve" font-family="Copperplate" font-size="42.0" fill="#FFFBF2" transform="matrix(1.00, 0.00, -0.00, -1.00, 580.1, 448.0)">F</text><text xml:space="preserve" font-family="Copperplate" font-size="42.0" fill="#FFFBF2" transform="matrix(1.00, 0.00, -0.00, -1.00, 605.7, 448.0)">e</text><text xml:space="preserve" font-family="Copperplate" font-size="42.0" fill="#FFFBF2" transform="matrix(1.00, 0.00, -0.00, -1.00, 629.1, 448.0)">m</text><text xml:space="preserve" font-family="Copperplate" font-size="42.0" fill="#FFFBF2" transform="matrix(1.00, 0.00, -0.00, -1.00, 659.4, 448.0)">i</text><text xml:space="preserve" font-family="Copperplate" font-size="42.0" fill="#FFFBF2" transform="matrix(1.00, 0.00, -0.00, -1.00, 673.4, 448.0)">n</text><text xml:space="preserve" font-family="Copperplate" font-size="42.0" fill="#FFFBF2" transform="matrix(1.00, 0.00, -0.00, -1.00, 701.4, 448.0)">i</text><text xml:space="preserve" font-family="Copperplate" font-size="42.0" fill="#FFFBF2" transform="matrix(1.00, 0.00, -0.00, -1.00, 715.4, 448.0)">s</text><text xml:space="preserve" font-family="Copperplate" font-size="42.0" fill="#FFFBF2" transform="matrix(1.00, 0.00, -0.00, -1.00, 738.7, 448.0)">m</text><text xml:space="preserve" font-family="Copperplate" font-size="42.0" fill="#FFFBF2" transform="matrix(1.00, 0.00, -0.00, -1.00, 769.1, 448.0)">o</text><g><clipPath id="clip-41"><path d="M 338.0 390.0 L 686.0 390.0 L 686.0 41.0 L 338.0 41.0 Z M 337.7 389.8 "></path></clipPath><g clip-path="url(#clip-41)"><image xlink:href="E46E046B42252BE84FBDC1006CF04F24.jpeg" width="349.00" height="430.00" transform="matrix(1.00, 0.00, -0.00, -1.00, 337.0, 390.0)"></image></g></g></g></svg>