<?xml version="1.0" encoding="UTF-8" standalone="no"?><svg xmlns="http://www.w3.org/2000/svg" xmlns:xlink="http://www.w3.org/1999/xlink" clip-rule="evenodd" stroke-miterlimit="4.00" viewBox="0 0 1024 768"><desc>SVG generated by Keynote</desc><defs><pattern id="76A49FF2-6B89-4BAC-A4BB-61AEC740048D" patternUnits="userSpaceOnUse" width="300" height="300" viewBox="0 0 300 300" patternTransform="matrix(1.000000, 0.000000, 0.000000, -1.000000, 80.000000, 301.332000)"><image xlink:href="../../53EA02A1-B837-48AD-921F-534D971EC859/assets/1BEE4B3CC82866F8294677BB62F3EB70.jpeg" width="300.00" height="300.00"></image></pattern></defs><g transform="matrix(1.00, 0.00, -0.00, -1.00, 0.0, 768.0)"><g><clipPath id="clip-30"><path d="M 0.0 768.0 L 1024.0 768.0 L 1024.0 0.0 L 0.0 0.0 Z M 0.0 768.0 "></path></clipPath><g clip-path="url(#clip-30)"><image xlink:href="../../A8ABAAB2-9805-4355-86DC-AB1D37E6CD16/assets/E83C1847B2B388C404EB332FEECC4B73.jpeg" width="1024.00" height="768.00" transform="matrix(1.00, 0.00, -0.00, -1.00, 0.0, 768.0)"></image></g></g><text xml:space="preserve" font-family="Copperplate" font-size="78.0" fill="#6E695A" transform="matrix(1.00, 0.00, -0.00, -1.00, 271.0, 632.0)">D</text><text xml:space="preserve" font-family="Copperplate" font-size="78.0" fill="#6E695A" transform="matrix(1.00, 0.00, -0.00, -1.00, 327.3, 632.0)">i</text><text xml:space="preserve" font-family="Copperplate" font-size="78.0" fill="#6E695A" transform="matrix(1.00, 0.00, -0.00, -1.00, 353.3, 632.0)">a</text><text xml:space="preserve" font-family="Copperplate" font-size="78.0" fill="#6E695A" transform="matrix(1.00, 0.00, -0.00, -1.00, 396.7, 632.0)">p</text><text xml:space="preserve" font-family="Copperplate" font-size="78.0" fill="#6E695A" transform="matrix(1.00, 0.00, -0.00, -1.00, 440.0, 632.0)">o</text><text xml:space="preserve" font-family="Copperplate" font-size="78.0" fill="#6E695A" transform="matrix(1.00, 0.00, -0.00, -1.00, 487.7, 632.0)">s</text><text xml:space="preserve" font-family="Copperplate" font-size="78.0" fill="#6E695A" transform="matrix(1.00, 0.00, -0.00, -1.00, 531.1, 632.0)">i</text><text xml:space="preserve" font-family="Copperplate" font-size="78.0" fill="#6E695A" transform="matrix(1.00, 0.00, -0.00, -1.00, 557.0, 632.0)">t</text><text xml:space="preserve" font-family="Copperplate" font-size="78.0" fill="#6E695A" transform="matrix(1.00, 0.00, -0.00, -1.00, 596.0, 632.0)">i</text><text xml:space="preserve" font-family="Copperplate" font-size="78.0" fill="#6E695A" transform="matrix(1.00, 0.00, -0.00, -1.00, 622.0, 632.0)">v</text><text xml:space="preserve" font-family="Copperplate" font-size="78.0" fill="#6E695A" transform="matrix(1.00, 0.00, -0.00, -1.00, 665.4, 632.0)">a</text><text xml:space="preserve" font-family="Copperplate" font-size="78.0" fill="#6E695A" transform="matrix(1.00, 0.00, -0.00, -1.00, 708.7, 632.0)">s</text><g><clipPath id="clip-31"><path d="M 80.0 301.3 L 944.0 301.3 L 944.0 98.8 L 80.0 98.8 Z M 80.0 301.3 "></path></clipPath><g clip-path="url(#clip-31)"><path d="M 80.0 98.8 L 944.0 98.8 L 944.0 301.3 L 80.0 301.3 Z M 80.0 98.8 " fill="url(#76A49FF2-6B89-4BAC-A4BB-61AEC740048D)"></path><path d="M 80.0 301.3 L 944.0 301.3 L 944.0 98.8 L 80.0 98.8 Z M 80.0 301.3 " fill="#8B5120" fill-opacity="0.50"></path></g></g><image xlink:href="2995FE922A6179A45C3FABFBB9EBAF39.png" width="695.00" height="68.00" transform="matrix(1.00, 0.00, -0.00, -1.00, 163.0, 263.0)"></image><g><clipPath id="clip-32"><path d="M 61.8 98.8 L 962.2 98.8 L 962.2 301.3 L 61.8 301.3 Z M 61.8 98.8 "></path></clipPath><g clip-path="url(#clip-32)"><text xml:space="preserve" font-family="Baskerville" font-size="67.0" fill="#FEFFFF" transform="matrix(1.00, 0.00, -0.00, -1.00, 165.0, 216.0)">h</text><text xml:space="preserve" font-family="Baskerville" font-size="67.0" fill="#FEFFFF" transform="matrix(1.00, 0.00, -0.00, -1.00, 200.6, 216.0)">t</text><text xml:space="preserve" font-family="Baskerville" font-size="67.0" fill="#FEFFFF" transform="matrix(1.00, 0.00, -0.00, -1.00, 220.1, 216.0)">t</text><text xml:space="preserve" font-family="Baskerville" font-size="67.0" fill="#FEFFFF" transform="matrix(1.00, 0.00, -0.00, -1.00, 239.6, 216.0)">p</text><text xml:space="preserve" font-family="Baskerville" font-size="67.0" fill="#FEFFFF" transform="matrix(1.00, 0.00, -0.00, -1.00, 274.5, 216.0)">s</text><text xml:space="preserve" font-family="Baskerville" font-size="67.0" fill="#FEFFFF" transform="matrix(1.00, 0.00, -0.00, -1.00, 296.9, 216.0)">:</text><text xml:space="preserve" font-family="Baskerville" font-size="67.0" fill="#FEFFFF" transform="matrix(1.00, 0.00, -0.00, -1.00, 313.6, 216.0)">/</text><text xml:space="preserve" font-family="Baskerville" font-size="67.0" fill="#FEFFFF" transform="matrix(1.00, 0.00, -0.00, -1.00, 348.5, 216.0)">/</text><text xml:space="preserve" font-family="Baskerville" font-size="67.0" fill="#FEFFFF" transform="matrix(1.00, 0.00, -0.00, -1.00, 383.5, 216.0)">d</text><text xml:space="preserve" font-family="Baskerville" font-size="67.0" fill="#FEFFFF" transform="matrix(1.00, 0.00, -0.00, -1.00, 418.4, 216.0)">e</text><text xml:space="preserve" font-family="Baskerville" font-size="67.0" fill="#FEFFFF" transform="matrix(1.00, 0.00, -0.00, -1.00, 447.6, 216.0)">r</text><text xml:space="preserve" font-family="Baskerville" font-size="67.0" fill="#FEFFFF" transform="matrix(1.00, 0.00, -0.00, -1.00, 471.4, 216.0)">e</text><text xml:space="preserve" font-family="Baskerville" font-size="67.0" fill="#FEFFFF" transform="matrix(1.00, 0.00, -0.00, -1.00, 500.7, 216.0)">i</text><text xml:space="preserve" font-family="Baskerville" font-size="67.0" fill="#FEFFFF" transform="matrix(1.00, 0.00, -0.00, -1.00, 517.4, 216.0)">t</text><text xml:space="preserve" font-family="Baskerville" font-size="67.0" fill="#FEFFFF" transform="matrix(1.00, 0.00, -0.00, -1.00, 536.9, 216.0)">o</text><text xml:space="preserve" font-family="Baskerville" font-size="67.0" fill="#FEFFFF" transform="matrix(1.00, 0.00, -0.00, -1.00, 569.2, 216.0)">.</text><text xml:space="preserve" font-family="Baskerville" font-size="67.0" fill="#FEFFFF" transform="matrix(1.00, 0.00, -0.00, -1.00, 585.9, 216.0)">g</text><text xml:space="preserve" font-family="Baskerville" font-size="67.0" fill="#FEFFFF" transform="matrix(1.00, 0.00, -0.00, -1.00, 617.3, 216.0)">i</text><text xml:space="preserve" font-family="Baskerville" font-size="67.0" fill="#FEFFFF" transform="matrix(1.00, 0.00, -0.00, -1.00, 634.0, 216.0)">t</text><text xml:space="preserve" font-family="Baskerville" font-size="67.0" fill="#FEFFFF" transform="matrix(1.00, 0.00, -0.00, -1.00, 653.5, 216.0)">h</text><text xml:space="preserve" font-family="Baskerville" font-size="67.0" fill="#FEFFFF" transform="matrix(1.00, 0.00, -0.00, -1.00, 689.2, 216.0)">u</text><text xml:space="preserve" font-family="Baskerville" font-size="67.0" fill="#FEFFFF" transform="matrix(1.00, 0.00, -0.00, -1.00, 724.1, 216.0)">b</text><text xml:space="preserve" font-family="Baskerville" font-size="67.0" fill="#FEFFFF" transform="matrix(1.00, 0.00, -0.00, -1.00, 756.5, 216.0)">.</text><text xml:space="preserve" font-family="Baskerville" font-size="67.0" fill="#FEFFFF" transform="matrix(1.00, 0.00, -0.00, -1.00, 773.2, 216.0)">i</text><text xml:space="preserve" font-family="Baskerville" font-size="67.0" fill="#FEFFFF" transform="matrix(1.00, 0.00, -0.00, -1.00, 790.0, 216.0)">o</text><text xml:space="preserve" font-family="Baskerville" font-size="67.0" fill="#FEFFFF" transform="matrix(1.00, 0.00, -0.00, -1.00, 823.5, 216.0)">/</text></g></g><image xlink:href="772FAB84CA55424574A2584F45FAF10F.png" width="510.00" height="68.00" transform="matrix(1.00, 0.00, -0.00, -1.00, 258.0, 187.0)"></image><g><clipPath id="clip-33"><path d="M 61.8 98.8 L 962.2 98.8 L 962.2 301.3 L 61.8 301.3 Z M 61.8 98.8 "></path></clipPath><g clip-path="url(#clip-33)"><text xml:space="preserve" font-family="Baskerville" font-size="67.0" fill="#FEFFFF" transform="matrix(1.00, 0.00, -0.00, -1.00, 259.0, 140.0)">c</text><text xml:space="preserve" font-family="Baskerville" font-size="67.0" fill="#FEFFFF" transform="matrix(1.00, 0.00, -0.00, -1.00, 287.6, 140.0)">o</text><text xml:space="preserve" font-family="Baskerville" font-size="67.0" fill="#FEFFFF" transform="matrix(1.00, 0.00, -0.00, -1.00, 321.1, 140.0)">n</text><text xml:space="preserve" font-family="Baskerville" font-size="67.0" fill="#FEFFFF" transform="matrix(1.00, 0.00, -0.00, -1.00, 356.8, 140.0)">c</text><text xml:space="preserve" font-family="Baskerville" font-size="67.0" fill="#FEFFFF" transform="matrix(1.00, 0.00, -0.00, -1.00, 385.4, 140.0)">e</text><text xml:space="preserve" font-family="Baskerville" font-size="67.0" fill="#FEFFFF" transform="matrix(1.00, 0.00, -0.00, -1.00, 415.3, 140.0)">p</text><text xml:space="preserve" font-family="Baskerville" font-size="67.0" fill="#FEFFFF" transform="matrix(1.00, 0.00, -0.00, -1.00, 450.2, 140.0)">c</text><text xml:space="preserve" font-family="Baskerville" font-size="67.0" fill="#FEFFFF" transform="matrix(1.00, 0.00, -0.00, -1.00, 478.9, 140.0)">i</text><text xml:space="preserve" font-family="Baskerville" font-size="67.0" fill="#FEFFFF" transform="matrix(1.00, 0.00, -0.00, -1.00, 495.6, 140.0)">o</text><text xml:space="preserve" font-family="Baskerville" font-size="67.0" fill="#FEFFFF" transform="matrix(1.00, 0.00, -0.00, -1.00, 529.1, 140.0)">n</text><text xml:space="preserve" font-family="Baskerville" font-size="67.0" fill="#FEFFFF" transform="matrix(1.00, 0.00, -0.00, -1.00, 564.7, 140.0)">_</text><text xml:space="preserve" font-family="Baskerville" font-size="67.0" fill="#FEFFFF" transform="matrix(1.00, 0.00, -0.00, -1.00, 598.2, 140.0)">a</text><text xml:space="preserve" font-family="Baskerville" font-size="67.0" fill="#FEFFFF" transform="matrix(1.00, 0.00, -0.00, -1.00, 629.6, 140.0)">r</text><text xml:space="preserve" font-family="Baskerville" font-size="67.0" fill="#FEFFFF" transform="matrix(1.00, 0.00, -0.00, -1.00, 653.4, 140.0)">e</text><text xml:space="preserve" font-family="Baskerville" font-size="67.0" fill="#FEFFFF" transform="matrix(1.00, 0.00, -0.00, -1.00, 682.7, 140.0)">n</text><text xml:space="preserve" font-family="Baskerville" font-size="67.0" fill="#FEFFFF" transform="matrix(1.00, 0.00, -0.00, -1.00, 718.3, 140.0)">a</text><text xml:space="preserve" font-family="Baskerville" font-size="67.0" fill="#FEFFFF" transform="matrix(1.00, 0.00, -0.00, -1.00, 749.7, 140.0)">l</text></g></g><g><clipPath id="clip-34"><path d="M 387.0 583.0 L 637.0 583.0 L 637.0 334.0 L 387.0 334.0 Z M 387.2 583.1 "></path></clipPath><g clip-path="url(#clip-34)"><image xlink:href="../../A8ABAAB2-9805-4355-86DC-AB1D37E6CD16/assets/E46E046B42252BE84FBDC1006CF04F24.jpeg" width="349.00" height="430.00" transform="matrix(0.72, 0.00, -0.00, -0.71, 387.0, 583.0)"></image></g></g></g></svg>