<?xml version="1.0" encoding="UTF-8" standalone="no"?><svg xmlns="http://www.w3.org/2000/svg" xmlns:xlink="http://www.w3.org/1999/xlink" clip-rule="evenodd" stroke-miterlimit="4.00" viewBox="0 0 1024 768"><desc>SVG generated by Keynote</desc><defs></defs><g transform="matrix(1.00, 0.00, -0.00, -1.00, 0.0, 768.0)"><g><clipPath id="clip-68"><path d="M 0.0 768.0 L 1024.0 768.0 L 1024.0 0.0 L 0.0 0.0 Z M 0.0 768.0 "></path></clipPath><g clip-path="url(#clip-68)"><image xlink:href="../../A8ABAAB2-9805-4355-86DC-AB1D37E6CD16/assets/E83C1847B2B388C404EB332FEECC4B73.jpeg" width="1024.00" height="768.00" transform="matrix(1.00, 0.00, -0.00, -1.00, 0.0, 768.0)"></image></g></g><text xml:space="preserve" font-family="Baskerville" font-size="34.8" fill="#A19A84" transform="matrix(1.00, 0.00, -0.00, -1.00, 84.0, 511.6)">•</text><text xml:space="preserve" font-family="Baskerville" font-size="34.8" fill="#6E695A" transform="matrix(1.00, 0.00, -0.00, -1.00, 113.0, 512.0)">P</text><text xml:space="preserve" font-family="Baskerville" font-size="34.8" fill="#6E695A" transform="matrix(1.00, 0.00, -0.00, -1.00, 132.6, 512.0)">i</text><text xml:space="preserve" font-family="Baskerville" font-size="34.8" fill="#6E695A" transform="matrix(1.00, 0.00, -0.00, -1.00, 141.3, 512.0)">o</text><text xml:space="preserve" font-family="Baskerville" font-size="34.8" fill="#6E695A" transform="matrix(1.00, 0.00, -0.00, -1.00, 158.7, 512.0)">n</text><text xml:space="preserve" font-family="Baskerville" font-size="34.8" fill="#6E695A" transform="matrix(1.00, 0.00, -0.00, -1.00, 177.2, 512.0)">e</text><text xml:space="preserve" font-family="Baskerville" font-size="34.8" fill="#6E695A" transform="matrix(1.00, 0.00, -0.00, -1.00, 192.4, 512.0)">r</text><text xml:space="preserve" font-family="Baskerville" font-size="34.8" fill="#6E695A" transform="matrix(1.00, 0.00, -0.00, -1.00, 205.0, 512.0)">a</text><text xml:space="preserve" font-family="Baskerville" font-size="34.8" fill="#6E695A" transform="matrix(1.00, 0.00, -0.00, -1.00, 221.4, 512.0)"> </text><text xml:space="preserve" font-family="Baskerville" font-size="34.8" fill="#6E695A" transform="matrix(1.00, 0.00, -0.00, -1.00, 230.1, 512.0)">d</text><text xml:space="preserve" font-family="Baskerville" font-size="34.8" fill="#6E695A" transform="matrix(1.00, 0.00, -0.00, -1.00, 248.2, 512.0)">e</text><text xml:space="preserve" font-family="Baskerville" font-size="34.8" fill="#6E695A" transform="matrix(1.00, 0.00, -0.00, -1.00, 263.4, 512.0)">l</text><text xml:space="preserve" font-family="Baskerville" font-size="34.8" fill="#6E695A" transform="matrix(1.00, 0.00, -0.00, -1.00, 271.7, 512.0)"> </text><text xml:space="preserve" font-family="Baskerville" font-size="34.8" fill="#6E695A" transform="matrix(1.00, 0.00, -0.00, -1.00, 280.4, 512.0)">f</text><text xml:space="preserve" font-family="Baskerville" font-size="34.8" fill="#6E695A" transform="matrix(1.00, 0.00, -0.00, -1.00, 289.9, 512.0)">e</text><text xml:space="preserve" font-family="Baskerville" font-size="34.8" fill="#6E695A" transform="matrix(1.00, 0.00, -0.00, -1.00, 305.1, 512.0)">m</text><text xml:space="preserve" font-family="Baskerville" font-size="34.8" fill="#6E695A" transform="matrix(1.00, 0.00, -0.00, -1.00, 333.0, 512.0)">i</text><text xml:space="preserve" font-family="Baskerville" font-size="34.8" fill="#6E695A" transform="matrix(1.00, 0.00, -0.00, -1.00, 341.7, 512.0)">n</text><text xml:space="preserve" font-family="Baskerville" font-size="34.8" fill="#6E695A" transform="matrix(1.00, 0.00, -0.00, -1.00, 360.2, 512.0)">i</text><text xml:space="preserve" font-family="Baskerville" font-size="34.8" fill="#6E695A" transform="matrix(1.00, 0.00, -0.00, -1.00, 368.9, 512.0)">s</text><text xml:space="preserve" font-family="Baskerville" font-size="34.8" fill="#6E695A" transform="matrix(1.00, 0.00, -0.00, -1.00, 380.5, 512.0)">m</text><text xml:space="preserve" font-family="Baskerville" font-size="34.8" fill="#6E695A" transform="matrix(1.00, 0.00, -0.00, -1.00, 408.4, 512.0)">o</text><text xml:space="preserve" font-family="Baskerville" font-size="34.8" fill="#6E695A" transform="matrix(1.00, 0.00, -0.00, -1.00, 425.2, 512.0)">.</text><text xml:space="preserve" font-family="Baskerville" font-size="34.8" fill="#6E695A" transform="matrix(1.00, 0.00, -0.00, -1.00, 433.9, 512.0)"> </text><text xml:space="preserve" font-family="Baskerville" font-size="34.8" fill="#A19A84" transform="matrix(1.00, 0.00, -0.00, -1.00, 84.0, 445.5)">•</text><text xml:space="preserve" font-family="Baskerville" font-size="34.8" fill="#6E695A" transform="matrix(1.00, 0.00, -0.00, -1.00, 113.0, 445.0)">C</text><text xml:space="preserve" font-family="Baskerville" font-size="34.8" fill="#6E695A" transform="matrix(1.00, 0.00, -0.00, -1.00, 138.0, 445.0)">o</text><text xml:space="preserve" font-family="Baskerville" font-size="34.8" fill="#6E695A" transform="matrix(1.00, 0.00, -0.00, -1.00, 155.4, 445.0)">r</text><text xml:space="preserve" font-family="Baskerville" font-size="34.8" fill="#6E695A" transform="matrix(1.00, 0.00, -0.00, -1.00, 168.4, 445.0)">r</text><text xml:space="preserve" font-family="Baskerville" font-size="34.8" fill="#6E695A" transform="matrix(1.00, 0.00, -0.00, -1.00, 181.1, 445.0)">i</text><text xml:space="preserve" font-family="Baskerville" font-size="34.8" fill="#6E695A" transform="matrix(1.00, 0.00, -0.00, -1.00, 189.8, 445.0)">e</text><text xml:space="preserve" font-family="Baskerville" font-size="34.8" fill="#6E695A" transform="matrix(1.00, 0.00, -0.00, -1.00, 205.0, 445.0)">n</text><text xml:space="preserve" font-family="Baskerville" font-size="34.8" fill="#6E695A" transform="matrix(1.00, 0.00, -0.00, -1.00, 223.5, 445.0)">t</text><text xml:space="preserve" font-family="Baskerville" font-size="34.8" fill="#6E695A" transform="matrix(1.00, 0.00, -0.00, -1.00, 233.6, 445.0)">e</text><text xml:space="preserve" font-family="Baskerville" font-size="34.8" fill="#6E695A" transform="matrix(1.00, 0.00, -0.00, -1.00, 248.8, 445.0)"> </text><text xml:space="preserve" font-family="Baskerville" font-size="34.8" fill="#6E695A" transform="matrix(1.00, 0.00, -0.00, -1.00, 257.5, 445.0)">p</text><text xml:space="preserve" font-family="Baskerville" font-size="34.8" fill="#6E695A" transform="matrix(1.00, 0.00, -0.00, -1.00, 275.7, 445.0)">a</text><text xml:space="preserve" font-family="Baskerville" font-size="34.8" fill="#6E695A" transform="matrix(1.00, 0.00, -0.00, -1.00, 292.0, 445.0)">r</text><text xml:space="preserve" font-family="Baskerville" font-size="34.8" fill="#6E695A" transform="matrix(1.00, 0.00, -0.00, -1.00, 304.7, 445.0)">a</text><text xml:space="preserve" font-family="Baskerville" font-size="34.8" fill="#6E695A" transform="matrix(1.00, 0.00, -0.00, -1.00, 321.0, 445.0)"> </text><text xml:space="preserve" font-family="Baskerville" font-size="34.8" fill="#6E695A" transform="matrix(1.00, 0.00, -0.00, -1.00, 329.7, 445.0)">l</text><text xml:space="preserve" font-family="Baskerville" font-size="34.8" fill="#6E695A" transform="matrix(1.00, 0.00, -0.00, -1.00, 338.0, 445.0)">a</text><text xml:space="preserve" font-family="Baskerville" font-size="34.8" fill="#6E695A" transform="matrix(1.00, 0.00, -0.00, -1.00, 354.3, 445.0)"> </text><text xml:space="preserve" font-family="Baskerville" font-size="34.8" fill="#6E695A" transform="matrix(1.00, 0.00, -0.00, -1.00, 363.0, 445.0)">m</text><text xml:space="preserve" font-family="Baskerville" font-size="34.8" fill="#6E695A" transform="matrix(1.00, 0.00, -0.00, -1.00, 390.9, 445.0)">e</text><text xml:space="preserve" font-family="Baskerville" font-size="34.8" fill="#6E695A" transform="matrix(1.00, 0.00, -0.00, -1.00, 406.1, 445.0)">j</text><text xml:space="preserve" font-family="Baskerville" font-size="34.8" fill="#6E695A" transform="matrix(1.00, 0.00, -0.00, -1.00, 414.8, 445.0)">o</text><text xml:space="preserve" font-family="Baskerville" font-size="34.8" fill="#6E695A" transform="matrix(1.00, 0.00, -0.00, -1.00, 432.2, 445.0)">r</text><text xml:space="preserve" font-family="Baskerville" font-size="34.8" fill="#6E695A" transform="matrix(1.00, 0.00, -0.00, -1.00, 444.9, 445.0)">a</text><text xml:space="preserve" font-family="Baskerville" font-size="34.8" fill="#6E695A" transform="matrix(1.00, 0.00, -0.00, -1.00, 461.2, 445.0)"> </text><text xml:space="preserve" font-family="Baskerville" font-size="34.8" fill="#6E695A" transform="matrix(1.00, 0.00, -0.00, -1.00, 469.9, 445.0)">d</text><text xml:space="preserve" font-family="Baskerville" font-size="34.8" fill="#6E695A" transform="matrix(1.00, 0.00, -0.00, -1.00, 488.1, 445.0)">e</text><text xml:space="preserve" font-family="Baskerville" font-size="34.8" fill="#6E695A" transform="matrix(1.00, 0.00, -0.00, -1.00, 503.3, 445.0)"> </text><text xml:space="preserve" font-family="Baskerville" font-size="34.8" fill="#6E695A" transform="matrix(1.00, 0.00, -0.00, -1.00, 512.0, 445.0)">s</text><text xml:space="preserve" font-family="Baskerville" font-size="34.8" fill="#6E695A" transform="matrix(1.00, 0.00, -0.00, -1.00, 523.6, 445.0)">o</text><text xml:space="preserve" font-family="Baskerville" font-size="34.8" fill="#6E695A" transform="matrix(1.00, 0.00, -0.00, -1.00, 541.0, 445.0)">c</text><text xml:space="preserve" font-family="Baskerville" font-size="34.8" fill="#6E695A" transform="matrix(1.00, 0.00, -0.00, -1.00, 555.9, 445.0)">i</text><text xml:space="preserve" font-family="Baskerville" font-size="34.8" fill="#6E695A" transform="matrix(1.00, 0.00, -0.00, -1.00, 564.6, 445.0)">e</text><text xml:space="preserve" font-family="Baskerville" font-size="34.8" fill="#6E695A" transform="matrix(1.00, 0.00, -0.00, -1.00, 579.8, 445.0)">d</text><text xml:space="preserve" font-family="Baskerville" font-size="34.8" fill="#6E695A" transform="matrix(1.00, 0.00, -0.00, -1.00, 597.9, 445.0)">a</text><text xml:space="preserve" font-family="Baskerville" font-size="34.8" fill="#6E695A" transform="matrix(1.00, 0.00, -0.00, -1.00, 614.2, 445.0)">d</text><text xml:space="preserve" font-family="Baskerville" font-size="34.8" fill="#6E695A" transform="matrix(1.00, 0.00, -0.00, -1.00, 632.3, 445.0)"> </text><text xml:space="preserve" font-family="Baskerville" font-size="34.8" fill="#6E695A" transform="matrix(1.00, 0.00, -0.00, -1.00, 641.0, 445.0)">e</text><text xml:space="preserve" font-family="Baskerville" font-size="34.8" fill="#6E695A" transform="matrix(1.00, 0.00, -0.00, -1.00, 656.3, 445.0)">n</text><text xml:space="preserve" font-family="Baskerville" font-size="34.8" fill="#6E695A" transform="matrix(1.00, 0.00, -0.00, -1.00, 674.7, 445.0)"> </text><text xml:space="preserve" font-family="Baskerville" font-size="34.8" fill="#6E695A" transform="matrix(1.00, 0.00, -0.00, -1.00, 683.4, 445.0)">s</text><text xml:space="preserve" font-family="Baskerville" font-size="34.8" fill="#6E695A" transform="matrix(1.00, 0.00, -0.00, -1.00, 695.1, 445.0)">u</text><text xml:space="preserve" font-family="Baskerville" font-size="34.8" fill="#6E695A" transform="matrix(1.00, 0.00, -0.00, -1.00, 713.2, 445.0)"> </text><text xml:space="preserve" font-family="Baskerville" font-size="34.8" fill="#6E695A" transform="matrix(1.00, 0.00, -0.00, -1.00, 721.9, 445.0)">c</text><text xml:space="preserve" font-family="Baskerville" font-size="34.8" fill="#6E695A" transform="matrix(1.00, 0.00, -0.00, -1.00, 736.8, 445.0)">o</text><text xml:space="preserve" font-family="Baskerville" font-size="34.8" fill="#6E695A" transform="matrix(1.00, 0.00, -0.00, -1.00, 754.2, 445.0)">n</text><text xml:space="preserve" font-family="Baskerville" font-size="34.8" fill="#6E695A" transform="matrix(1.00, 0.00, -0.00, -1.00, 772.7, 445.0)">j</text><text xml:space="preserve" font-family="Baskerville" font-size="34.8" fill="#6E695A" transform="matrix(1.00, 0.00, -0.00, -1.00, 781.4, 445.0)">u</text><text xml:space="preserve" font-family="Baskerville" font-size="34.8" fill="#6E695A" transform="matrix(1.00, 0.00, -0.00, -1.00, 799.5, 445.0)">n</text><text xml:space="preserve" font-family="Baskerville" font-size="34.8" fill="#6E695A" transform="matrix(1.00, 0.00, -0.00, -1.00, 818.0, 445.0)">t</text><text xml:space="preserve" font-family="Baskerville" font-size="34.8" fill="#6E695A" transform="matrix(1.00, 0.00, -0.00, -1.00, 828.1, 445.0)">o</text><text xml:space="preserve" font-family="Baskerville" font-size="34.8" fill="#6E695A" transform="matrix(1.00, 0.00, -0.00, -1.00, 845.5, 445.0)">:</text><text xml:space="preserve" font-family="Baskerville" font-size="34.8" fill="#6E695A" transform="matrix(1.00, 0.00, -0.00, -1.00, 854.2, 445.0)"> </text><text xml:space="preserve" font-family="Baskerville" font-size="34.8" fill="#A19A84" transform="matrix(1.00, 0.00, -0.00, -1.00, 117.0, 379.4)">•</text><text xml:space="preserve" font-family="Baskerville" font-size="34.8" fill="#6E695A" transform="matrix(1.00, 0.00, -0.00, -1.00, 146.0, 379.0)">A</text><text xml:space="preserve" font-family="Baskerville" font-size="34.8" fill="#6E695A" transform="matrix(1.00, 0.00, -0.00, -1.00, 169.6, 379.0)">s</text><text xml:space="preserve" font-family="Baskerville" font-size="34.8" fill="#6E695A" transform="matrix(1.00, 0.00, -0.00, -1.00, 181.2, 379.0)">p</text><text xml:space="preserve" font-family="Baskerville" font-size="34.8" fill="#6E695A" transform="matrix(1.00, 0.00, -0.00, -1.00, 199.3, 379.0)">e</text><text xml:space="preserve" font-family="Baskerville" font-size="34.8" fill="#6E695A" transform="matrix(1.00, 0.00, -0.00, -1.00, 214.5, 379.0)">c</text><text xml:space="preserve" font-family="Baskerville" font-size="34.8" fill="#6E695A" transform="matrix(1.00, 0.00, -0.00, -1.00, 229.4, 379.0)">t</text><text xml:space="preserve" font-family="Baskerville" font-size="34.8" fill="#6E695A" transform="matrix(1.00, 0.00, -0.00, -1.00, 239.5, 379.0)">o</text><text xml:space="preserve" font-family="Baskerville" font-size="34.8" fill="#6E695A" transform="matrix(1.00, 0.00, -0.00, -1.00, 256.9, 379.0)"> </text><text xml:space="preserve" font-family="Baskerville" font-size="34.8" fill="#6E695A" transform="matrix(1.00, 0.00, -0.00, -1.00, 265.6, 379.0)">i</text><text xml:space="preserve" font-family="Baskerville" font-size="34.8" fill="#6E695A" transform="matrix(1.00, 0.00, -0.00, -1.00, 274.3, 379.0)">n</text><text xml:space="preserve" font-family="Baskerville" font-size="34.8" fill="#6E695A" transform="matrix(1.00, 0.00, -0.00, -1.00, 292.8, 379.0)">t</text><text xml:space="preserve" font-family="Baskerville" font-size="34.8" fill="#6E695A" transform="matrix(1.00, 0.00, -0.00, -1.00, 303.0, 379.0)">e</text><text xml:space="preserve" font-family="Baskerville" font-size="34.8" fill="#6E695A" transform="matrix(1.00, 0.00, -0.00, -1.00, 318.2, 379.0)">l</text><text xml:space="preserve" font-family="Baskerville" font-size="34.8" fill="#6E695A" transform="matrix(1.00, 0.00, -0.00, -1.00, 326.5, 379.0)">e</text><text xml:space="preserve" font-family="Baskerville" font-size="34.8" fill="#6E695A" transform="matrix(1.00, 0.00, -0.00, -1.00, 341.7, 379.0)">c</text><text xml:space="preserve" font-family="Baskerville" font-size="34.8" fill="#6E695A" transform="matrix(1.00, 0.00, -0.00, -1.00, 356.6, 379.0)">t</text><text xml:space="preserve" font-family="Baskerville" font-size="34.8" fill="#6E695A" transform="matrix(1.00, 0.00, -0.00, -1.00, 366.7, 379.0)">u</text><text xml:space="preserve" font-family="Baskerville" font-size="34.8" fill="#6E695A" transform="matrix(1.00, 0.00, -0.00, -1.00, 384.8, 379.0)">a</text><text xml:space="preserve" font-family="Baskerville" font-size="34.8" fill="#6E695A" transform="matrix(1.00, 0.00, -0.00, -1.00, 401.1, 379.0)">l</text><text xml:space="preserve" font-family="Baskerville" font-size="34.8" fill="#6E695A" transform="matrix(1.00, 0.00, -0.00, -1.00, 409.5, 379.0)">,</text><text xml:space="preserve" font-family="Baskerville" font-size="34.8" fill="#6E695A" transform="matrix(1.00, 0.00, -0.00, -1.00, 418.2, 379.0)"> </text><text xml:space="preserve" font-family="Baskerville" font-size="34.8" fill="#6E695A" transform="matrix(1.00, 0.00, -0.00, -1.00, 426.9, 379.0)">s</text><text xml:space="preserve" font-family="Baskerville" font-size="34.8" fill="#6E695A" transform="matrix(1.00, 0.00, -0.00, -1.00, 438.5, 379.0)">o</text><text xml:space="preserve" font-family="Baskerville" font-size="34.8" fill="#6E695A" transform="matrix(1.00, 0.00, -0.00, -1.00, 455.9, 379.0)">c</text><text xml:space="preserve" font-family="Baskerville" font-size="34.8" fill="#6E695A" transform="matrix(1.00, 0.00, -0.00, -1.00, 470.8, 379.0)">i</text><text xml:space="preserve" font-family="Baskerville" font-size="34.8" fill="#6E695A" transform="matrix(1.00, 0.00, -0.00, -1.00, 479.5, 379.0)">a</text><text xml:space="preserve" font-family="Baskerville" font-size="34.8" fill="#6E695A" transform="matrix(1.00, 0.00, -0.00, -1.00, 495.8, 379.0)">l</text><text xml:space="preserve" font-family="Baskerville" font-size="34.8" fill="#6E695A" transform="matrix(1.00, 0.00, -0.00, -1.00, 504.1, 379.0)"> </text><text xml:space="preserve" font-family="Baskerville" font-size="34.8" fill="#6E695A" transform="matrix(1.00, 0.00, -0.00, -1.00, 512.8, 379.0)">y</text><text xml:space="preserve" font-family="Baskerville" font-size="34.8" fill="#6E695A" transform="matrix(1.00, 0.00, -0.00, -1.00, 528.8, 379.0)"> </text><text xml:space="preserve" font-family="Baskerville" font-size="34.8" fill="#6E695A" transform="matrix(1.00, 0.00, -0.00, -1.00, 537.5, 379.0)">c</text><text xml:space="preserve" font-family="Baskerville" font-size="34.8" fill="#6E695A" transform="matrix(1.00, 0.00, -0.00, -1.00, 552.4, 379.0)">i</text><text xml:space="preserve" font-family="Baskerville" font-size="34.8" fill="#6E695A" transform="matrix(1.00, 0.00, -0.00, -1.00, 561.1, 379.0)">e</text><text xml:space="preserve" font-family="Baskerville" font-size="34.8" fill="#6E695A" transform="matrix(1.00, 0.00, -0.00, -1.00, 576.3, 379.0)">n</text><text xml:space="preserve" font-family="Baskerville" font-size="34.8" fill="#6E695A" transform="matrix(1.00, 0.00, -0.00, -1.00, 594.8, 379.0)">t</text><text xml:space="preserve" font-family="Baskerville" font-size="34.8" fill="#6E695A" transform="matrix(1.00, 0.00, -0.00, -1.00, 604.9, 379.0)">í</text><text xml:space="preserve" font-family="Baskerville" font-size="34.8" fill="#6E695A" transform="matrix(1.00, 0.00, -0.00, -1.00, 613.6, 379.0)">ﬁ</text><text xml:space="preserve" font-family="Baskerville" font-size="34.8" fill="#6E695A" transform="matrix(1.00, 0.00, -0.00, -1.00, 631.4, 379.0)">c</text><text xml:space="preserve" font-family="Baskerville" font-size="34.8" fill="#6E695A" transform="matrix(1.00, 0.00, -0.00, -1.00, 646.2, 379.0)">o</text><text xml:space="preserve" font-family="Baskerville" font-size="34.8" fill="#6E695A" transform="matrix(1.00, 0.00, -0.00, -1.00, 663.0, 379.0)">.</text><text xml:space="preserve" font-family="Baskerville" font-size="34.8" fill="#6E695A" transform="matrix(1.00, 0.00, -0.00, -1.00, 671.7, 379.0)"> </text><text xml:space="preserve" font-family="Baskerville" font-size="34.8" fill="#A19A84" transform="matrix(1.00, 0.00, -0.00, -1.00, 117.0, 313.3)">•</text><text xml:space="preserve" font-family="Baskerville" font-size="34.8" fill="#6E695A" transform="matrix(1.00, 0.00, -0.00, -1.00, 146.0, 313.0)">A</text><text xml:space="preserve" font-family="Baskerville" font-size="34.8" fill="#6E695A" transform="matrix(1.00, 0.00, -0.00, -1.00, 169.6, 313.0)">s</text><text xml:space="preserve" font-family="Baskerville" font-size="34.8" fill="#6E695A" transform="matrix(1.00, 0.00, -0.00, -1.00, 181.2, 313.0)">p</text><text xml:space="preserve" font-family="Baskerville" font-size="34.8" fill="#6E695A" transform="matrix(1.00, 0.00, -0.00, -1.00, 199.3, 313.0)">e</text><text xml:space="preserve" font-family="Baskerville" font-size="34.8" fill="#6E695A" transform="matrix(1.00, 0.00, -0.00, -1.00, 214.5, 313.0)">c</text><text xml:space="preserve" font-family="Baskerville" font-size="34.8" fill="#6E695A" transform="matrix(1.00, 0.00, -0.00, -1.00, 229.4, 313.0)">t</text><text xml:space="preserve" font-family="Baskerville" font-size="34.8" fill="#6E695A" transform="matrix(1.00, 0.00, -0.00, -1.00, 239.5, 313.0)">o</text><text xml:space="preserve" font-family="Baskerville" font-size="34.8" fill="#6E695A" transform="matrix(1.00, 0.00, -0.00, -1.00, 256.9, 313.0)"> </text><text xml:space="preserve" font-family="Baskerville" font-size="34.8" fill="#6E695A" transform="matrix(1.00, 0.00, -0.00, -1.00, 265.6, 313.0)">i</text><text xml:space="preserve" font-family="Baskerville" font-size="34.8" fill="#6E695A" transform="matrix(1.00, 0.00, -0.00, -1.00, 274.3, 313.0)">n</text><text xml:space="preserve" font-family="Baskerville" font-size="34.8" fill="#6E695A" transform="matrix(1.00, 0.00, -0.00, -1.00, 292.8, 313.0)">d</text><text xml:space="preserve" font-family="Baskerville" font-size="34.8" fill="#6E695A" transform="matrix(1.00, 0.00, -0.00, -1.00, 311.0, 313.0)">u</text><text xml:space="preserve" font-family="Baskerville" font-size="34.8" fill="#6E695A" transform="matrix(1.00, 0.00, -0.00, -1.00, 329.1, 313.0)">s</text><text xml:space="preserve" font-family="Baskerville" font-size="34.8" fill="#6E695A" transform="matrix(1.00, 0.00, -0.00, -1.00, 340.7, 313.0)">t</text><text xml:space="preserve" font-family="Baskerville" font-size="34.8" fill="#6E695A" transform="matrix(1.00, 0.00, -0.00, -1.00, 350.8, 313.0)">r</text><text xml:space="preserve" font-family="Baskerville" font-size="34.8" fill="#6E695A" transform="matrix(1.00, 0.00, -0.00, -1.00, 363.5, 313.0)">i</text><text xml:space="preserve" font-family="Baskerville" font-size="34.8" fill="#6E695A" transform="matrix(1.00, 0.00, -0.00, -1.00, 372.2, 313.0)">a</text><text xml:space="preserve" font-family="Baskerville" font-size="34.8" fill="#6E695A" transform="matrix(1.00, 0.00, -0.00, -1.00, 388.5, 313.0)">l</text><text xml:space="preserve" font-family="Baskerville" font-size="34.8" fill="#6E695A" transform="matrix(1.00, 0.00, -0.00, -1.00, 396.9, 313.0)"> </text><text xml:space="preserve" font-family="Baskerville" font-size="34.8" fill="#6E695A" transform="matrix(1.00, 0.00, -0.00, -1.00, 405.6, 313.0)">y</text><text xml:space="preserve" font-family="Baskerville" font-size="34.8" fill="#6E695A" transform="matrix(1.00, 0.00, -0.00, -1.00, 421.5, 313.0)"> </text><text xml:space="preserve" font-family="Baskerville" font-size="34.8" fill="#6E695A" transform="matrix(1.00, 0.00, -0.00, -1.00, 430.2, 313.0)">l</text><text xml:space="preserve" font-family="Baskerville" font-size="34.8" fill="#6E695A" transform="matrix(1.00, 0.00, -0.00, -1.00, 438.6, 313.0)">a</text><text xml:space="preserve" font-family="Baskerville" font-size="34.8" fill="#6E695A" transform="matrix(1.00, 0.00, -0.00, -1.00, 454.9, 313.0)">b</text><text xml:space="preserve" font-family="Baskerville" font-size="34.8" fill="#6E695A" transform="matrix(1.00, 0.00, -0.00, -1.00, 473.0, 313.0)">o</text><text xml:space="preserve" font-family="Baskerville" font-size="34.8" fill="#6E695A" transform="matrix(1.00, 0.00, -0.00, -1.00, 490.4, 313.0)">r</text><text xml:space="preserve" font-family="Baskerville" font-size="34.8" fill="#6E695A" transform="matrix(1.00, 0.00, -0.00, -1.00, 503.1, 313.0)">a</text><text xml:space="preserve" font-family="Baskerville" font-size="34.8" fill="#6E695A" transform="matrix(1.00, 0.00, -0.00, -1.00, 519.4, 313.0)">l</text><text xml:space="preserve" font-family="Baskerville" font-size="34.8" fill="#6E695A" transform="matrix(1.00, 0.00, -0.00, -1.00, 527.7, 313.0)">.</text><text xml:space="preserve" font-family="Baskerville" font-size="34.8" fill="#6E695A" transform="matrix(1.00, 0.00, -0.00, -1.00, 536.4, 313.0)"> </text><text xml:space="preserve" font-family="Baskerville" font-size="34.8" fill="#A19A84" transform="matrix(1.00, 0.00, -0.00, -1.00, 117.0, 247.2)">•</text><text xml:space="preserve" font-family="Baskerville" font-size="34.8" fill="#6E695A" transform="matrix(1.00, 0.00, -0.00, -1.00, 146.0, 247.0)">P</text><text xml:space="preserve" font-family="Baskerville" font-size="34.8" fill="#6E695A" transform="matrix(1.00, 0.00, -0.00, -1.00, 165.6, 247.0)">r</text><text xml:space="preserve" font-family="Baskerville" font-size="34.8" fill="#6E695A" transform="matrix(1.00, 0.00, -0.00, -1.00, 177.6, 247.0)">o</text><text xml:space="preserve" font-family="Baskerville" font-size="34.8" fill="#6E695A" transform="matrix(1.00, 0.00, -0.00, -1.00, 195.0, 247.0)">t</text><text xml:space="preserve" font-family="Baskerville" font-size="34.8" fill="#6E695A" transform="matrix(1.00, 0.00, -0.00, -1.00, 205.1, 247.0)">e</text><text xml:space="preserve" font-family="Baskerville" font-size="34.8" fill="#6E695A" transform="matrix(1.00, 0.00, -0.00, -1.00, 220.3, 247.0)">c</text><text xml:space="preserve" font-family="Baskerville" font-size="34.8" fill="#6E695A" transform="matrix(1.00, 0.00, -0.00, -1.00, 235.2, 247.0)">c</text><text xml:space="preserve" font-family="Baskerville" font-size="34.8" fill="#6E695A" transform="matrix(1.00, 0.00, -0.00, -1.00, 250.1, 247.0)">i</text><text xml:space="preserve" font-family="Baskerville" font-size="34.8" fill="#6E695A" transform="matrix(1.00, 0.00, -0.00, -1.00, 258.8, 247.0)">ó</text><text xml:space="preserve" font-family="Baskerville" font-size="34.8" fill="#6E695A" transform="matrix(1.00, 0.00, -0.00, -1.00, 276.2, 247.0)">n</text><text xml:space="preserve" font-family="Baskerville" font-size="34.8" fill="#6E695A" transform="matrix(1.00, 0.00, -0.00, -1.00, 294.7, 247.0)"> </text><text xml:space="preserve" font-family="Baskerville" font-size="34.8" fill="#6E695A" transform="matrix(1.00, 0.00, -0.00, -1.00, 303.4, 247.0)">s</text><text xml:space="preserve" font-family="Baskerville" font-size="34.8" fill="#6E695A" transform="matrix(1.00, 0.00, -0.00, -1.00, 315.0, 247.0)">a</text><text xml:space="preserve" font-family="Baskerville" font-size="34.8" fill="#6E695A" transform="matrix(1.00, 0.00, -0.00, -1.00, 331.3, 247.0)">n</text><text xml:space="preserve" font-family="Baskerville" font-size="34.8" fill="#6E695A" transform="matrix(1.00, 0.00, -0.00, -1.00, 349.8, 247.0)">i</text><text xml:space="preserve" font-family="Baskerville" font-size="34.8" fill="#6E695A" transform="matrix(1.00, 0.00, -0.00, -1.00, 358.5, 247.0)">t</text><text xml:space="preserve" font-family="Baskerville" font-size="34.8" fill="#6E695A" transform="matrix(1.00, 0.00, -0.00, -1.00, 368.6, 247.0)">a</text><text xml:space="preserve" font-family="Baskerville" font-size="34.8" fill="#6E695A" transform="matrix(1.00, 0.00, -0.00, -1.00, 384.9, 247.0)">r</text><text xml:space="preserve" font-family="Baskerville" font-size="34.8" fill="#6E695A" transform="matrix(1.00, 0.00, -0.00, -1.00, 397.6, 247.0)">i</text><text xml:space="preserve" font-family="Baskerville" font-size="34.8" fill="#6E695A" transform="matrix(1.00, 0.00, -0.00, -1.00, 406.3, 247.0)">a</text><text xml:space="preserve" font-family="Baskerville" font-size="34.8" fill="#6E695A" transform="matrix(1.00, 0.00, -0.00, -1.00, 422.6, 247.0)"> </text><text xml:space="preserve" font-family="Baskerville" font-size="34.8" fill="#6E695A" transform="matrix(1.00, 0.00, -0.00, -1.00, 431.3, 247.0)">y</text><text xml:space="preserve" font-family="Baskerville" font-size="34.8" fill="#6E695A" transform="matrix(1.00, 0.00, -0.00, -1.00, 447.3, 247.0)"> </text><text xml:space="preserve" font-family="Baskerville" font-size="34.8" fill="#6E695A" transform="matrix(1.00, 0.00, -0.00, -1.00, 456.0, 247.0)">j</text><text xml:space="preserve" font-family="Baskerville" font-size="34.8" fill="#6E695A" transform="matrix(1.00, 0.00, -0.00, -1.00, 464.7, 247.0)">u</text><text xml:space="preserve" font-family="Baskerville" font-size="34.8" fill="#6E695A" transform="matrix(1.00, 0.00, -0.00, -1.00, 482.8, 247.0)">r</text><text xml:space="preserve" font-family="Baskerville" font-size="34.8" fill="#6E695A" transform="matrix(1.00, 0.00, -0.00, -1.00, 495.5, 247.0)">í</text><text xml:space="preserve" font-family="Baskerville" font-size="34.8" fill="#6E695A" transform="matrix(1.00, 0.00, -0.00, -1.00, 504.2, 247.0)">d</text><text xml:space="preserve" font-family="Baskerville" font-size="34.8" fill="#6E695A" transform="matrix(1.00, 0.00, -0.00, -1.00, 522.3, 247.0)">i</text><text xml:space="preserve" font-family="Baskerville" font-size="34.8" fill="#6E695A" transform="matrix(1.00, 0.00, -0.00, -1.00, 531.0, 247.0)">c</text><text xml:space="preserve" font-family="Baskerville" font-size="34.8" fill="#6E695A" transform="matrix(1.00, 0.00, -0.00, -1.00, 545.9, 247.0)">a</text><text xml:space="preserve" font-family="Baskerville" font-size="34.8" fill="#6E695A" transform="matrix(1.00, 0.00, -0.00, -1.00, 562.2, 247.0)">.</text><text xml:space="preserve" font-family="Baskerville" font-size="34.8" fill="#6E695A" transform="matrix(1.00, 0.00, -0.00, -1.00, 570.9, 247.0)"> </text><text xml:space="preserve" font-family="Baskerville" font-size="34.8" fill="#A19A84" transform="matrix(1.00, 0.00, -0.00, -1.00, 84.0, 181.1)">•</text><text xml:space="preserve" font-family="Baskerville" font-size="34.8" fill="#6E695A" transform="matrix(1.00, 0.00, -0.00, -1.00, 113.0, 181.0)">C</text><text xml:space="preserve" font-family="Baskerville" font-size="34.8" fill="#6E695A" transform="matrix(1.00, 0.00, -0.00, -1.00, 138.0, 181.0)">o</text><text xml:space="preserve" font-family="Baskerville" font-size="34.8" fill="#6E695A" transform="matrix(1.00, 0.00, -0.00, -1.00, 155.4, 181.0)">n</text><text xml:space="preserve" font-family="Baskerville" font-size="34.8" fill="#6E695A" transform="matrix(1.00, 0.00, -0.00, -1.00, 173.9, 181.0)">t</text><text xml:space="preserve" font-family="Baskerville" font-size="34.8" fill="#6E695A" transform="matrix(1.00, 0.00, -0.00, -1.00, 184.0, 181.0)">e</text><text xml:space="preserve" font-family="Baskerville" font-size="34.8" fill="#6E695A" transform="matrix(1.00, 0.00, -0.00, -1.00, 198.9, 181.0)">x</text><text xml:space="preserve" font-family="Baskerville" font-size="34.8" fill="#6E695A" transform="matrix(1.00, 0.00, -0.00, -1.00, 215.6, 181.0)">t</text><text xml:space="preserve" font-family="Baskerville" font-size="34.8" fill="#6E695A" transform="matrix(1.00, 0.00, -0.00, -1.00, 225.7, 181.0)">o</text><text xml:space="preserve" font-family="Baskerville" font-size="34.8" fill="#6E695A" transform="matrix(1.00, 0.00, -0.00, -1.00, 243.1, 181.0)"> </text><text xml:space="preserve" font-family="Baskerville" font-size="34.8" fill="#6E695A" transform="matrix(1.00, 0.00, -0.00, -1.00, 251.8, 181.0)">p</text><text xml:space="preserve" font-family="Baskerville" font-size="34.8" fill="#6E695A" transform="matrix(1.00, 0.00, -0.00, -1.00, 269.9, 181.0)">o</text><text xml:space="preserve" font-family="Baskerville" font-size="34.8" fill="#6E695A" transform="matrix(1.00, 0.00, -0.00, -1.00, 287.3, 181.0)">l</text><text xml:space="preserve" font-family="Baskerville" font-size="34.8" fill="#6E695A" transform="matrix(1.00, 0.00, -0.00, -1.00, 295.7, 181.0)">í</text><text xml:space="preserve" font-family="Baskerville" font-size="34.8" fill="#6E695A" transform="matrix(1.00, 0.00, -0.00, -1.00, 304.4, 181.0)">t</text><text xml:space="preserve" font-family="Baskerville" font-size="34.8" fill="#6E695A" transform="matrix(1.00, 0.00, -0.00, -1.00, 314.5, 181.0)">i</text><text xml:space="preserve" font-family="Baskerville" font-size="34.8" fill="#6E695A" transform="matrix(1.00, 0.00, -0.00, -1.00, 323.2, 181.0)">c</text><text xml:space="preserve" font-family="Baskerville" font-size="34.8" fill="#6E695A" transform="matrix(1.00, 0.00, -0.00, -1.00, 338.1, 181.0)">o</text><text xml:space="preserve" font-family="Baskerville" font-size="34.8" fill="#6E695A" transform="matrix(1.00, 0.00, -0.00, -1.00, 355.5, 181.0)"> </text><text xml:space="preserve" font-family="Baskerville" font-size="34.8" fill="#6E695A" transform="matrix(1.00, 0.00, -0.00, -1.00, 364.2, 181.0)">y</text><text xml:space="preserve" font-family="Baskerville" font-size="34.8" fill="#6E695A" transform="matrix(1.00, 0.00, -0.00, -1.00, 380.1, 181.0)"> </text><text xml:space="preserve" font-family="Baskerville" font-size="34.8" fill="#6E695A" transform="matrix(1.00, 0.00, -0.00, -1.00, 388.8, 181.0)">e</text><text xml:space="preserve" font-family="Baskerville" font-size="34.8" fill="#6E695A" transform="matrix(1.00, 0.00, -0.00, -1.00, 404.0, 181.0)">c</text><text xml:space="preserve" font-family="Baskerville" font-size="34.8" fill="#6E695A" transform="matrix(1.00, 0.00, -0.00, -1.00, 418.9, 181.0)">o</text><text xml:space="preserve" font-family="Baskerville" font-size="34.8" fill="#6E695A" transform="matrix(1.00, 0.00, -0.00, -1.00, 436.3, 181.0)">n</text><text xml:space="preserve" font-family="Baskerville" font-size="34.8" fill="#6E695A" transform="matrix(1.00, 0.00, -0.00, -1.00, 454.8, 181.0)">ó</text><text xml:space="preserve" font-family="Baskerville" font-size="34.8" fill="#6E695A" transform="matrix(1.00, 0.00, -0.00, -1.00, 472.2, 181.0)">m</text><text xml:space="preserve" font-family="Baskerville" font-size="34.8" fill="#6E695A" transform="matrix(1.00, 0.00, -0.00, -1.00, 500.1, 181.0)">i</text><text xml:space="preserve" font-family="Baskerville" font-size="34.8" fill="#6E695A" transform="matrix(1.00, 0.00, -0.00, -1.00, 508.8, 181.0)">c</text><text xml:space="preserve" font-family="Baskerville" font-size="34.8" fill="#6E695A" transform="matrix(1.00, 0.00, -0.00, -1.00, 523.7, 181.0)">o</text><text xml:space="preserve" font-family="Baskerville" font-size="34.8" fill="#6E695A" transform="matrix(1.00, 0.00, -0.00, -1.00, 541.1, 181.0)"> </text><text xml:space="preserve" font-family="Baskerville" font-size="34.8" fill="#6E695A" transform="matrix(1.00, 0.00, -0.00, -1.00, 549.8, 181.0)">n</text><text xml:space="preserve" font-family="Baskerville" font-size="34.8" fill="#6E695A" transform="matrix(1.00, 0.00, -0.00, -1.00, 568.0, 181.0)">u</text><text xml:space="preserve" font-family="Baskerville" font-size="34.8" fill="#6E695A" transform="matrix(1.00, 0.00, -0.00, -1.00, 586.1, 181.0)">e</text><text xml:space="preserve" font-family="Baskerville" font-size="34.8" fill="#6E695A" transform="matrix(1.00, 0.00, -0.00, -1.00, 601.0, 181.0)">v</text><text xml:space="preserve" font-family="Baskerville" font-size="34.8" fill="#6E695A" transform="matrix(1.00, 0.00, -0.00, -1.00, 616.3, 181.0)">o</text><text xml:space="preserve" font-family="Baskerville" font-size="34.8" fill="#6E695A" transform="matrix(1.00, 0.00, -0.00, -1.00, 633.7, 181.0)">:</text><text xml:space="preserve" font-family="Baskerville" font-size="34.8" fill="#6E695A" transform="matrix(1.00, 0.00, -0.00, -1.00, 642.4, 181.0)"> </text><text xml:space="preserve" font-family="Baskerville" font-size="34.8" fill="#A19A84" transform="matrix(1.00, 0.00, -0.00, -1.00, 117.0, 115.0)">•</text><text xml:space="preserve" font-family="Baskerville" font-size="34.8" fill="#6E695A" transform="matrix(1.00, 0.00, -0.00, -1.00, 146.0, 115.0)">L</text><text xml:space="preserve" font-family="Baskerville" font-size="34.8" fill="#6E695A" transform="matrix(1.00, 0.00, -0.00, -1.00, 167.0, 115.0)">i</text><text xml:space="preserve" font-family="Baskerville" font-size="34.8" fill="#6E695A" transform="matrix(1.00, 0.00, -0.00, -1.00, 175.7, 115.0)">b</text><text xml:space="preserve" font-family="Baskerville" font-size="34.8" fill="#6E695A" transform="matrix(1.00, 0.00, -0.00, -1.00, 193.9, 115.0)">e</text><text xml:space="preserve" font-family="Baskerville" font-size="34.8" fill="#6E695A" transform="matrix(1.00, 0.00, -0.00, -1.00, 209.1, 115.0)">r</text><text xml:space="preserve" font-family="Baskerville" font-size="34.8" fill="#6E695A" transform="matrix(1.00, 0.00, -0.00, -1.00, 221.7, 115.0)">a</text><text xml:space="preserve" font-family="Baskerville" font-size="34.8" fill="#6E695A" transform="matrix(1.00, 0.00, -0.00, -1.00, 238.0, 115.0)">l</text><text xml:space="preserve" font-family="Baskerville" font-size="34.8" fill="#6E695A" transform="matrix(1.00, 0.00, -0.00, -1.00, 246.4, 115.0)">i</text><text xml:space="preserve" font-family="Baskerville" font-size="34.8" fill="#6E695A" transform="matrix(1.00, 0.00, -0.00, -1.00, 255.1, 115.0)">s</text><text xml:space="preserve" font-family="Baskerville" font-size="34.8" fill="#6E695A" transform="matrix(1.00, 0.00, -0.00, -1.00, 266.7, 115.0)">m</text><text xml:space="preserve" font-family="Baskerville" font-size="34.8" fill="#6E695A" transform="matrix(1.00, 0.00, -0.00, -1.00, 294.6, 115.0)">o</text><text xml:space="preserve" font-family="Baskerville" font-size="34.8" fill="#6E695A" transform="matrix(1.00, 0.00, -0.00, -1.00, 311.4, 115.0)">,</text><text xml:space="preserve" font-family="Baskerville" font-size="34.8" fill="#6E695A" transform="matrix(1.00, 0.00, -0.00, -1.00, 320.1, 115.0)"> </text><text xml:space="preserve" font-family="Baskerville" font-size="34.8" fill="#6E695A" transform="matrix(1.00, 0.00, -0.00, -1.00, 328.8, 115.0)">i</text><text xml:space="preserve" font-family="Baskerville" font-size="34.8" fill="#6E695A" transform="matrix(1.00, 0.00, -0.00, -1.00, 337.5, 115.0)">n</text><text xml:space="preserve" font-family="Baskerville" font-size="34.8" fill="#6E695A" transform="matrix(1.00, 0.00, -0.00, -1.00, 356.0, 115.0)">d</text><text xml:space="preserve" font-family="Baskerville" font-size="34.8" fill="#6E695A" transform="matrix(1.00, 0.00, -0.00, -1.00, 374.1, 115.0)">u</text><text xml:space="preserve" font-family="Baskerville" font-size="34.8" fill="#6E695A" transform="matrix(1.00, 0.00, -0.00, -1.00, 392.2, 115.0)">s</text><text xml:space="preserve" font-family="Baskerville" font-size="34.8" fill="#6E695A" transform="matrix(1.00, 0.00, -0.00, -1.00, 403.8, 115.0)">t</text><text xml:space="preserve" font-family="Baskerville" font-size="34.8" fill="#6E695A" transform="matrix(1.00, 0.00, -0.00, -1.00, 414.0, 115.0)">r</text><text xml:space="preserve" font-family="Baskerville" font-size="34.8" fill="#6E695A" transform="matrix(1.00, 0.00, -0.00, -1.00, 426.7, 115.0)">i</text><text xml:space="preserve" font-family="Baskerville" font-size="34.8" fill="#6E695A" transform="matrix(1.00, 0.00, -0.00, -1.00, 435.4, 115.0)">a</text><text xml:space="preserve" font-family="Baskerville" font-size="34.8" fill="#6E695A" transform="matrix(1.00, 0.00, -0.00, -1.00, 451.7, 115.0)">l</text><text xml:space="preserve" font-family="Baskerville" font-size="34.8" fill="#6E695A" transform="matrix(1.00, 0.00, -0.00, -1.00, 460.0, 115.0)">i</text><text xml:space="preserve" font-family="Baskerville" font-size="34.8" fill="#6E695A" transform="matrix(1.00, 0.00, -0.00, -1.00, 468.7, 115.0)">z</text><text xml:space="preserve" font-family="Baskerville" font-size="34.8" fill="#6E695A" transform="matrix(1.00, 0.00, -0.00, -1.00, 483.6, 115.0)">a</text><text xml:space="preserve" font-family="Baskerville" font-size="34.8" fill="#6E695A" transform="matrix(1.00, 0.00, -0.00, -1.00, 499.9, 115.0)">c</text><text xml:space="preserve" font-family="Baskerville" font-size="34.8" fill="#6E695A" transform="matrix(1.00, 0.00, -0.00, -1.00, 514.7, 115.0)">i</text><text xml:space="preserve" font-family="Baskerville" font-size="34.8" fill="#6E695A" transform="matrix(1.00, 0.00, -0.00, -1.00, 523.4, 115.0)">ó</text><text xml:space="preserve" font-family="Baskerville" font-size="34.8" fill="#6E695A" transform="matrix(1.00, 0.00, -0.00, -1.00, 540.8, 115.0)">n</text><text xml:space="preserve" font-family="Copperplate" font-size="78.0" fill="#6E695A" transform="matrix(1.00, 0.00, -0.00, -1.00, 356.0, 653.0)">C</text><text xml:space="preserve" font-family="Copperplate" font-size="78.0" fill="#6E695A" transform="matrix(1.00, 0.00, -0.00, -1.00, 412.3, 653.0)">L</text><text xml:space="preserve" font-family="Copperplate" font-size="78.0" fill="#6E695A" transform="matrix(1.00, 0.00, -0.00, -1.00, 460.0, 653.0)">A</text><text xml:space="preserve" font-family="Copperplate" font-size="78.0" fill="#6E695A" transform="matrix(1.00, 0.00, -0.00, -1.00, 512.0, 653.0)">V</text><text xml:space="preserve" font-family="Copperplate" font-size="78.0" fill="#6E695A" transform="matrix(1.00, 0.00, -0.00, -1.00, 564.0, 653.0)">E</text><text xml:space="preserve" font-family="Copperplate" font-size="78.0" fill="#6E695A" transform="matrix(1.00, 0.00, -0.00, -1.00, 616.1, 653.0)">S</text><g><clipPath id="clip-69"><path d="M 802.0 741.0 L 968.0 741.0 L 968.0 575.0 L 802.0 575.0 Z M 801.9 741.0 "></path></clipPath><g clip-path="url(#clip-69)"><image xlink:href="../../A8ABAAB2-9805-4355-86DC-AB1D37E6CD16/assets/E46E046B42252BE84FBDC1006CF04F24.jpeg" width="349.00" height="430.00" transform="matrix(0.48, 0.00, -0.00, -0.47, 802.0, 741.0)"></image></g></g></g></svg>